<?xml version="1.0" encoding="utf-8"?>
<!-- Generator: Adobe Illustrator 18.1.1, SVG Export Plug-In . SVG Version: 6.00 Build 0)  -->
<svg version="1.1" xmlns="http://www.w3.org/2000/svg" xmlns:xlink="http://www.w3.org/1999/xlink" x="0px" y="0px"
	 viewBox="0 0 53.6 73.5" enable-background="new 0 0 53.6 73.5" xml:space="preserve">
<g id="home">
	<g>
		<path fill-rule="evenodd" clip-rule="evenodd" fill="#FFFFFF" d="M28.8,32.2c0-0.3,0-0.5,0-0.8c-0.1,0.1-0.2,0.1-0.3,0.2
			c-0.1,0-0.3,0-0.4,0c0-0.2,0-0.4,0.1-0.5c0.2-0.2,0.5-0.4,0.8-0.6c-0.2-0.3-0.4-0.4-0.8-0.1c-0.1,0.1-0.3,0.1-0.4,0.1
			c0-0.2,0-0.3,0-0.5c0.2-0.3,0.7-0.5,1.1-0.4c0.4,0.1,0.5,0.3,0.5,0.7c0,0.2,0.3,0.5,0.4,0.8c0,0,0.1,0,0.1,0
			c-0.1-0.4-0.1-0.8-0.2-1.2c0-0.4,0-0.9,0-1.3c0-0.3,0-0.6-0.5-0.5c-0.1,0-0.2,0-0.3-0.1c-0.2-0.4-0.5-0.4-0.9-0.5
			c-0.1,0-0.2-0.1-0.3-0.2c-0.1-0.5-0.2-1-0.3-1.5c0-0.1,0.1-0.3,0.3-0.4c0.3-0.2,0.6-0.5,1-0.7c0.2-0.2,0.3-0.3,0-0.6
			c-0.5-0.6-1.1-1.2-1.6-1.8c-0.3-0.3-0.3-0.6-0.2-1c0.1-0.2,0.1-0.5,0.1-0.7c0-0.2,0-0.4,0.1-0.5c0-0.1,0.2-0.1,0.3-0.2
			c0,0.1,0,0.2,0,0.3c-0.1,0.4-0.2,0.8-0.3,1.2c0,0.1,0.1,0.3,0.1,0.4c0.4,0.4,0.8,0.8,1.2,1.2c0.2,0.2,0.5,0.2,0.7,0.3
			c0.1,0,0.3,0,0.4,0c1,0.1,1,0.1,1.5-0.8c0-0.1,0.1-0.2,0.2-0.2c0.2-0.2,0.4-0.3,0.6-0.5c0.1-0.2,0.2-0.4,0.3-0.7
			c0.2,0.1,0.3,0.2,0.5,0.4c0.6,0.6,1.5,0.7,2.1,0.1c0.3-0.3,0.4-0.7,0.8-0.9c0.1,0,0.1-0.3,0.1-0.5c0-0.4-0.1-0.8-0.2-1.1
			c0-0.1-0.2-0.2-0.2-0.3c-0.1-0.1-0.1-0.2-0.1-0.4c0.1,0,0.3-0.1,0.3-0.1c0.2,0.1,0.4,0.2,0.4,0.3c0.1,0.7,0.1,1.5,0,2.2
			c0,0.3-0.3,0.5-0.5,0.8c0.5,0.4,1.1,0.7,1.8,0.6c0.6-0.1,0.8-0.7,1.1-1.2c0.1-0.2,0.2-0.4,0.4-0.6c0.6,0.6,1.3,0.6,2,0.3
			c0.3-0.2,0.7-0.3,1.1-0.4c0.1,0,0.2,0,0.4,0c0,0,0,0.1,0,0.1c-0.1,0-0.2,0.1-0.4,0.1c-0.1,0-0.1,0-0.1,0c-0.6,0.6-1,1.3-2,1.2
			c-0.1,0-0.2,0.2-0.3,0.2c0.1,0.1,0.2,0.4,0.4,0.4c0.4,0,0.9-0.1,1.3-0.1c0.2,0,0.4,0,0.6,0c0,0.1,0,0.1,0,0.2
			c-0.3,0.1-0.6,0.2-0.9,0.3c-0.3,0.1-0.6,0.1-1.1,0.2c0.3,0.3,0.4,0.4,0.6,0.6c0.2,0.2,0.4,0.4,0.5,0.6c0.2,0.4,0.1,0.6-0.3,0.8
			c-0.5,0.3-1,0.6-1.7,0.4c-0.5-0.2-0.9-0.4-0.9-1c0-0.2-0.3-0.4-0.5-0.7c-0.1-0.1-0.1-0.3-0.2-0.5c0.2,0,0.4,0,0.5,0.1
			c0.2,0.1,0.3,0.3,0.3,0.5c0.4,1,1,1.3,1.8,1c0.5-0.2,0.6-0.4,0.2-0.7c-0.8-0.5-1.1-1.2-1.1-2.1c0-0.1-0.1-0.2-0.2-0.3
			c-0.1,0.1-0.2,0.1-0.3,0.2c-0.2,0.2-0.3,0.4-0.5,0.7c-0.3,0.4-0.7,0.6-1.2,0.3c-0.1,0-0.4,0.2-0.5,0.3c-0.1,0.1-0.1,0.4-0.1,0.5
			c0,0.4-0.1,0.6-0.5,0.8c-0.5,0.2-0.5,0.5-0.1,0.8c0.4,0.2,0.9,0.5,1.4,0.1c0.2-0.1,0.4-0.1,0.7-0.2c-0.1,0.2-0.1,0.3-0.2,0.3
			c-0.6,0.4-1.2,0.7-1.9,0.4c-0.2-0.1-0.3-0.4-0.5-0.5c-0.2-0.2-0.4-0.4-0.5-0.6c-0.1,0.2-0.3,0.4-0.4,0.6c-0.2,0.6-0.6,1-1.3,0.9
			c-0.5-0.1-1.1,0.1-1.3-0.6c0,0-0.4,0-0.4,0.1c0,0.2-0.1,0.5,0,0.7c0.2,0.3,0.1,0.5-0.2,0.7c-0.3,0.2-0.7,0.4-1,0.7
			c-0.1,0.1-0.2,0.2-0.2,0.3c-0.3,0.9,0,2,0.8,2.6c0.4,0.3,0.7,0.6,0.9,1.1c0.3,0.7,0.8,1.3,1.3,1.9c0.4,0.5,0.9,0.9,1.4,1.4
			c0.2,0.2,0.5,0.4,0.8,0.6c0.9,0.7,1.8,1.5,2.6,2.2c0.1,0.1,0.3,0.2,0.4,0.3c0.8,0.4,1.6,0.8,2.3,1.3c0.5,0.4,1.1,0.6,1.8,0.8
			c-0.1-0.1-0.2-0.2-0.2-0.3c-1.1-1-2.2-1.9-3.2-2.9c-0.3-0.3-0.5-0.6-0.8-0.9c-0.2-0.2-0.5-0.4-0.7-0.7c-0.1-0.1-0.1-0.3-0.2-0.5
			c0.1,0,0.3,0,0.4,0.1c0.4,0.4,0.8,0.9,1.3,1.3c0.3,0.3,0.7,0.5,1,0.8c0.2,0.2,0.4,0.4,0.7,0.6c0.1,0.1,0.4,0.1,0.4,0.1
			c0.1,0.3,0.2,0.7,0.4,0.8c0.8,0.7,1.6,1.3,2.4,1.9c0.5,0.4,2,0.6,2.8,0.5c-0.3-0.3-0.6-0.6-0.8-0.9c-0.5-0.6-1.1-1.1-1.5-1.7
			c-0.3-0.6-0.8-0.9-1.3-1.2c-0.4-0.3-0.4-0.3-0.4-0.8c0.1,0,0.2,0,0.3,0.1c0.6,0.5,1.1,1.1,1.7,1.7c0.5,0.5,0.9,1,1.4,1.5
			c0.1,0.1,0.2,0.2,0.2,0.3c0.4,0.8,1.2,1.4,1.9,1.9c0.2,0.2,0.5,0.2,0.8,0.2c0-0.1,0.1-0.2,0-0.2c-0.5-0.8-0.9-1.5-1.4-2.3
			c-0.1-0.2-0.3-0.5-0.4-0.7c-0.2-0.3-0.4-0.6-0.6-0.9c-0.3-0.5-0.6-0.9-1-1.4c-0.4-0.4-0.8-0.8-1.2-1.2c-0.4-0.5-0.9-0.9-1.4-1.4
			c-0.5-0.5-1.1-1-1.4-1.7c0-0.1-0.1-0.1-0.2-0.2c-0.7-0.7-1.5-1.3-2.2-2C39,30.2,39,29.9,39,29.7c0.2,0,0.4,0,0.5,0.1
			c0.5,0.4,0.9,0.8,1.3,1.2c0.8,0.9,1.7,1.9,2.5,2.8c1,1.1,2.1,2.1,2.8,3.5c0.1,0.2,0.5,0.4,0.8,0.5c0.1,0.1,0.3,0.1,0.5,0.2
			c0,0,0,0.1,0,0.1c-0.2,0-0.3,0-0.7-0.1c0.3,0.6,0.6,1,0.9,1.5c0.2,0.3,0.4,0.7,0.6,1c0.1,0.2,0.2,0.4,0.3,0.5
			c0.5,0.3,0.7,0.8,1,1.3c0.1,0.2,0.4,0.4,0.6,0.6c0.1,0.1,0.1,0.2,0.2,0.3c0.1,0.5,0.2,1.1,0.8,1.3c0,0,0.1,0.3,0,0.4
			c-0.3,0.3-0.2,0.6,0,0.9c0.2,0.3,0.3,0.5,0.6,0.8c0.1-0.1,0.3-0.3,0.3-0.5c0-0.5-0.1-1-0.1-1.4c0-0.3-0.2-0.6-0.2-0.9
			c0-0.7-0.2-1.2-0.5-1.7c-0.3-0.5-0.4-1.1-0.7-1.6c-0.5-0.8-1-1.6-1.6-2.4c-0.6-1-1.3-1.9-1.9-2.9c-0.4-0.6-0.7-1.2-1.1-1.7
			c-0.7-0.8-1.4-1.7-2.1-2.5c-0.6-0.6-1.2-1.1-1.8-1.7c-0.1-0.1-0.3-0.2-0.5-0.3c-0.1-0.2-0.3-0.3-0.3-0.5c0-0.1,0.1-0.3,0.2-0.3
			c0.2,0,0.4,0.1,0.5,0.2c1.2,1.2,2.4,2.3,3.4,3.6c0.7,0.8,1.2,1.8,1.8,2.7c0.6,0.9,1.3,1.8,1.9,2.8c0.3,0.4,0.4,0.8,0.6,1.2
			c0.4,0.7,0.8,1.3,1.2,2c0.2,0.4,0.4,0.9,0.6,1.3c0,0.1,0.1,0.1,0.2,0.3c0-0.3,0-0.5,0-0.6c-0.3-0.8-0.6-1.6-0.9-2.4
			c0-0.1-0.1-0.2-0.2-0.3c-0.3-0.2-0.6-0.3-0.3-0.8c0.1-0.2-0.2-0.6-0.3-0.9c-0.5-1.1-1-2.2-1.6-3.3c-0.4-0.8-0.9-1.6-1.4-2.5
			c-0.1-0.1-0.2-0.3-0.2-0.4c-0.9-2-2.1-3.8-3.7-5.4c-0.1-0.1-0.1-0.3-0.2-0.5c0.2-0.1,0.4-0.2,0.6-0.2c0.1,0,0.2,0.2,0.3,0.3
			c0.2,0.3,0.4,0.6,0.7,0.9c0.5,0.7,0.9,1.4,1.5,2.1c0.3,0.4,0.8,0.7,1.1,1.1c0.6,0.7,1.3,1.4,1.5,2.3c0.1,0.5,0.4,0.6,0.8,0.8
			c0.1,0,0.2,0,0.3-0.1c0.2-0.1,0.3-0.2,0.6-0.3c-0.1-0.3-0.1-0.7-0.3-0.9c-0.2-0.2-0.6-0.3-1-0.4c0.3-0.1,0.5-0.2,0.8-0.3
			c-0.5-1.1-1-2.2-1.5-3.3c-0.5-1.1-1.2-2.2-1.8-3.2c0,0,0.1-0.1,0.1-0.1c0.3,0.3,0.6,0.5,0.8,0.8c0.7-0.8,0.5-2.8-0.3-3.5
			c-0.2,0.5-0.1,1.1-0.7,1.3c-0.1,0-0.2,0-0.5-0.1c0.2-0.2,0.3-0.4,0.4-0.5c0.4-0.4,0.4-1,0-1.3c-0.3-0.3-0.5-0.8-1.1-0.5
			c-0.1,0-0.4-0.2-0.5-0.3c-0.1-0.1-0.3-0.2-0.4-0.4c-0.3,0.1-0.5,0.3-0.8,0.3c-0.3,0-0.6,0-1,0c-0.2,0-0.4,0-0.7-0.1
			c-0.1-0.3,0.1-0.4,0.4-0.4c-0.1-0.9-0.5-1.4-1.3-1.4c-0.2,0-0.5,0.1-0.5,0.2c-0.2,0.6-0.8,0.5-1.2,0.4c-0.4-0.1-0.9-0.4-1.3-0.7
			c-0.1-0.1-0.1-0.2-0.2-0.4c0.5-0.1,0.8,0.1,1.1,0.3c0.5,0.4,1,0.4,1.3-0.2c0.2-0.2,0.4-0.5,0.5-0.7c0.1-0.4-0.1-0.6-0.5-0.5
			c-0.4,0-0.8,0.1-1.1,0.1c-0.9,0-1.3-0.5-1.3-1.4c0-0.2-0.1-0.4-0.2-0.5c-0.2-0.1-0.5,0-0.9,0c0.3,0.4,0.5,0.6,0.7,0.8
			c0,0-0.1,0.1-0.1,0.1c-0.1,0-0.3-0.1-0.4-0.1c-0.2,0-0.4,0-0.6,0.1c0.1,0.2,0.1,0.5,0.2,0.6c0.3,0.3,0.6,0.5,0.9,0.7
			c-0.4,0.4-0.6,0.3-0.8-0.1c-0.1-0.2-0.3-0.3-0.5-0.4c-0.2-0.1-0.6-0.2-0.7-0.3c-0.4-0.5-0.7-0.3-1.1-0.1c-0.1,0.1-0.2,0.1-0.3,0.2
			c-0.2-0.3-0.1-0.6,0.2-0.7c0.4-0.2,0.8-0.3,1.2-0.1c0.3,0.1,0.4,0,0.5-0.2c0.4-0.8,0.9-1,1.7-1c0.6,0,1.2-0.3,1.8-0.2
			c1,0,2.1,0.1,2.8,1c0,0,0.1,0.1,0.2,0.1c0.6,0.4,1.3,0.8,1.9,1.1c0.6,0.3,0.9,0.8,0.8,1.5c-0.1,0.7,0.1,0.9,0.9,0.8
			c0.1,0.3,0.1,0.6,0.2,0.8c0,0.1,0.2,0.2,0.3,0.3c0.3,0.1,0.5,0.4,0.5,0.8c0,0.1,0.1,0.2,0.1,0.3c0.5,0.5,1,1,1,1.8
			c0,0.9,0.1,1.8,0.8,2.5c-0.1,0-0.2,0-0.3,0c0.3,0.3,0.5,0.7,0.8,1.1c0,0,0.1-0.1,0.3-0.1c0.1,0.3,0.2,0.7,0.3,1.1
			c-0.2-0.1-0.3-0.1-0.3-0.1c-0.1,0.4,0.4,1.4,0.7,1.6c-0.2,0.9-0.1,1.1,0.6,1.3c-0.4,0.7,0,1.4,0.2,2.1c0.2,0.7,0.7,1.4,1,2.1
			c0.4,0.9,0.8,1.9,1.1,2.8c0.2,0.6,0.2,1.3,0.3,2c0.1,0.6,0.2,1.3,0.3,1.9c0.2,1.1,0.4,2.2,0.2,3.3c0,0.1,0,0.3-0.1,0.4
			c-0.1,0.1-0.3,0.2-0.5,0.3c-0.1-0.2-0.2-0.3-0.2-0.5c0-0.6-0.2-1.1-0.7-1.7c0,0.1-0.1,0.3-0.1,0.4c0,0.3-0.1,0.6-0.1,0.9
			c0,0.2,0,0.4,0.1,0.6c0.4,1,0.3,1.9,0,2.9c0,0.1-0.2,0.2-0.3,0.2c-0.1,0-0.2-0.1-0.3-0.2c-0.3-0.5-0.5-1.1-0.8-1.7
			c-0.1-0.2-0.3-0.3-0.4-0.4c-0.2-0.2-0.5-0.4-0.7-0.6c0-0.1,0.1-0.1,0.1-0.2c0.2,0,0.5,0,0.8,0.1c-0.2-0.8-0.7-1.3-1.2-1.9
			c-0.1,0-0.1,0-0.2,0.1c0.1,0.2,0.2,0.4,0.3,0.7c0.1,0.2,0.1,0.4,0.1,0.5c0,0.1-0.2,0.2-0.2,0.3c-0.1-0.1-0.2-0.2-0.2-0.3
			c0-0.4-0.2-0.5-0.6-0.4c0,0.6,0,1.2,0,1.9c0,1.1,0.1,2.1,0.1,3.2c0,0.1-0.1,0.4-0.2,0.4c-0.5,0-0.5,0.4-0.4,0.7
			c0.1,0.6,0.2,1.2,0.3,1.9c0.1,0.3,0.1,0.7-0.3,0.9c-0.1,0.1-0.1,0.4,0,0.6c0.2,1.4,0.4,2.8,0.6,4.2c0,0.3,0,0.5-0.4,0.6
			c-0.1,0-0.2,0.2-0.2,0.4c0,0.2,0.1,0.4,0.1,0.6c-0.4,0-0.8,0.2-1.1-0.3c-0.2-0.3-0.4-0.1-0.6,0.3c-0.2,0.1-0.4,0.2-0.6,0.2
			c-0.1,0-0.3-0.1-0.4-0.2c0.1-0.1,0.2-0.3,0.3-0.3c0.6,0,0.5-0.4,0.6-0.8c0.1-0.5,0.2-0.8-0.4-1.1c-0.1,0-0.2-0.1-0.3-0.1
			c0.1-0.5,0-0.9-0.5-1.3c0,0.3,0,0.6,0,0.9c0,0.8-0.1,1.5-0.2,2.3c0,0.2-0.2,0.4-0.4,0.5c-0.1,0.1-0.4,0.1-0.6,0.1
			c0-0.2,0-0.3,0-0.5c0.2-1.2,0.3-2.4-0.4-3.5c-0.4-0.7-0.8-1.5-1.6-2c-0.1,0-0.1-0.2-0.1-0.3c0-0.2,0-0.4,0-0.6
			c0.4,0.1,0.3,0.2,0.5,0.7c0.2,0.5,0.6,0.9,1,1.4c0.2-0.8,0.1-1.5-0.5-1.8c-0.5-0.4-1-0.9-1.5-1.1c-0.5-0.2-0.7-0.6-1-0.9
			c-0.6-0.6-1.4-1.1-2.2-1.6C38,49,37.8,49,37.7,49c0,0.1-0.1,0.3,0,0.4c0.5,0.9,1.1,1.9,1.6,2.8c0.1,0.1,0.1,0.2,0.2,0.3
			c0.3,0.8,0.7,1.5,0.8,2.3c0.3,1.3,1.3,2.2,1.7,3.5c0.5,1.4,1.3,2.6,2,3.9c0.1,0.1,0.2,0.2,0.3,0.3c0.1,0.1,0.2,0.2,0.2,0.2
			c-0.2,0.8,0.4,1.3,0.6,1.9c0.4,1.2,0.9,2.4,1.3,3.7c0.1,0.4,0.2,0.5,0.6,0.3c0.7-0.3,1.3,0.1,2,0.3c0.2,0.1,0.2,0.3,0,0.4
			c-0.3,0.1-0.6,0.3-0.9,0.3c-0.6,0.1-1,0.4-1.3,1c0.2,0,0.4,0.1,0.7,0.1c-0.3,0.3-0.5,0.4-0.7,0.6c-0.2,0.2-0.5,0.5-0.6,0.8
			c-0.3,0.6-0.7,0.9-1.2,0.8c0,0.1,0.1,0.2,0.1,0.3c0,0.1,0,0.2-0.1,0.3c-0.1,0-0.2,0-0.3,0c-0.5-0.4-0.5-0.7-0.1-1.1
			c0.3-0.3,0.7-0.7,1-1.1c0.1-0.1,0.1-0.3,0.2-0.5c-0.6,0.3-1.2,0-1.8-0.1c-0.4,0-0.8,0-1.1,0.1c-0.5,0.2-1,0.2-1.3,0.7
			c-0.1,0.1-0.3,0.1-0.5,0.1c-0.1,0-0.2-0.1-0.2-0.2c0-0.1,0.1-0.2,0.1-0.2c0.7-0.6,1.5-1.1,2.2-1.7c0.2-0.1,0.5,0,0.7,0
			c0.4,0,0.9,0,1.3,0c0,0,0.1-0.1,0.1-0.1c-0.2-0.1-0.3-0.3-0.5-0.4c-0.4-0.2-0.8-0.5-1.3-0.7c-0.1-0.1-0.1-0.2-0.2-0.3
			c0.1,0,0.2-0.2,0.3-0.1c0.5,0.1,1-0.2,1.4,0.2c0,0,0.4-0.1,0.4-0.3c0-0.2,0-0.4-0.1-0.6c-0.5-1-1-1.9-1.6-2.9
			c-0.4-0.7-0.8-1.4-1.2-2.2c-0.2-0.3-0.5-0.6-0.7-0.9c-0.1-0.1-0.2-0.1-0.2-0.2c-0.3-0.7-0.5-1.4-0.9-2.1c-0.6-1.2-1.3-2.5-2-3.7
			c-0.3-0.6-0.6-1.2-1-1.8c-0.3-0.5-0.6-0.9-0.8-1.4c-0.2-0.4-0.5-0.8-0.7-1.2c-0.4-0.6-0.7-1.1-1.1-1.7c-0.6-1-1.2-2.1-1.8-3.1
			c-0.2-0.3-0.3-0.6-0.5-0.8c-0.1-0.1-0.4-0.2-0.6-0.2c0,0.2,0,0.4,0,0.6c0,0.4,0.2,0.8-0.3,1.1c-0.2,0.2-0.4,0.5-0.5,0.8
			c-0.6-0.2-0.7-0.6-0.9-1c-0.2-0.3-0.3-0.6-0.5-1c0-0.1,0-0.2-0.1-0.4c0.1,0,0.3,0,0.4,0c0.2,0.2,0.4,0.4,0.6,0.7
			c0.2,0.3,0.1,0.8,0.5,0.7c0.2,0,0.4-0.3,0.6-0.4c-0.2-0.5-0.4-0.9-0.6-1.3c-0.1-0.1-0.2-0.2-0.3-0.4c-0.1-0.2-0.2-0.3-0.3-0.5
			c0-0.1,0-0.2,0.1-0.2c0.1,0,0.2,0,0.3,0c0.1,0.1,0.3,0.3,0.4,0.4c0.1,0.1,0.4,0.2,0.5,0.1c0.1-0.2,0.3-0.4,0.3-0.6
			c-0.2-0.8-0.5-1.5-1.2-2c-0.1-0.1-0.1-0.3-0.2-0.5c0.2,0,0.3,0,0.5,0c0.7,0.2,0.8,0.9,1,1.4c0.2,0.5,0.3,1,0.5,1.5
			c0.2-0.1,0.5-0.3,0.7-0.4c0.5,0.5,1.3,0.8,1.4,1.4c0.2,0.8,0.9,1.1,1.2,1.7c0.1,0.2,0.4,0.2,0.6,0.3c0,0.1,0,0.3,0.1,0.4
			c0.5,0.4,1,0.8,1.5,1.2c0.2,0.1,0.3,0.2,0.5,0.3c0.5,0.4,1,0.8,1.6,1.1c0.4,0.2,0.7,0.6,1.1,0.9c0.3,0.3,0.7,0.6,1.2,1
			c0-0.3,0-0.4-0.1-0.5c-0.2-0.4-0.4-0.9-0.6-1.2c-0.4-0.6-0.9-1.2-1.4-1.7c0,0,0,0,0,0c-0.6-0.8-1.3-1.5-1.9-2.3
			c-0.1-0.1-0.1-0.2-0.2-0.3c-0.6-0.5-1.3-1-1.9-1.5c-0.2-0.2-0.4-0.5-0.7-0.6c-0.8-0.3-1.1-1.2-1.7-1.7c-0.2-0.2-0.4-0.3-0.7-0.5
			c-0.3,0.6,0.1,0.9,0.3,1.3c-0.1,0-0.1,0.1-0.2,0.1c-0.2-0.2-0.4-0.3-0.6-0.5c-0.5-0.8-0.9-1.6-1.3-2.4c-0.1-0.2-0.2-0.4-0.3-0.6
			c0,0,0.1-0.1,0.1-0.1c0.2,0.1,0.3,0.2,0.5,0.3c0.2,0.2,0.3,0.5,0.5,0.7c0.1,0.1,0.4,0.2,0.6,0.2c0.2,0.1,0.5,0.1,0.6,0.2
			c0.7,0.4,1,1.2,1.6,1.6c1.1,0.8,1.9,1.9,3,2.7c0.2,0.2,0.4,0.4,0.6,0.7c0.3,0.4,0.5,0.9,1,1.1c0.1,0,0.2,0.2,0.3,0.3
			c0.3,0.4,0.6,0.7,0.9,1.1c0.2,0.2,0.3,0.5,0.5,0.7c0.1,0.1,0.1,0.3,0.3,0.4c0.6,0.3,0.7,1,1,1.6c0.3,0.7,0.7,1.3,1.1,1.9
			c0,0,0.1,0,0.3,0.1c-0.3-0.6-0.4-1-0.7-1.5c-0.5-1-1.1-2-1.6-3c-0.3-0.5-0.7-1-1-1.5c-0.2-0.3-0.4-0.7-0.6-1
			c-0.2-0.3-0.4-0.5-0.6-0.7c-0.1-0.1-0.2-0.2-0.2-0.3c-0.1-0.6-0.4-1.1-0.8-1.5c-0.3-0.2-0.5-0.5-0.6-0.9c-0.2-0.5-0.5-0.9-1.1-0.7
			c0.3-1-0.5-1.3-1-1.9c-0.3-0.3-0.5-0.7-0.8-1c-0.1-0.1-0.4-0.1-0.6-0.2c-0.2,0-0.3-0.1-0.5-0.2c0.1-0.1,0.2-0.2,0.4-0.3
			c0.9-0.4,1.4,0.2,1.9,0.8c0.5,0.6,0.8,1.3,1.3,1.9c0.6,0.7,0.7,1.6,1.6,2.1c0.1,0.1,0.2,0.2,0.3,0.4c0.5,0.9,0.9,1.8,1.4,2.8
			c0.2,0.3,0.4,0.7,0.6,1c0.1,0.1,0.3,0.2,0.5,0.3c0,0,0,0.1,0,0.3c0,0.1-0.1,0.2,0,0.2c0.6,0.3,0.2,1.1,0.8,1.5
			c0.2,0.1,0.4,0.2,0.6,0.2c-0.2,0.6-0.1,0.9,0.5,1.4c0.1,0.1,0.2,0.3,0.2,0.4c0.1,0.4,0.3,0.7,0.4,1.1c0.1,0,0.2,0,0.2,0
			c0-0.2,0.1-0.4,0.1-0.6c-0.2-0.9-0.4-1.8-0.7-2.6c-0.5-1.5-1.1-3-1.8-4.4c-0.7-1.3-1.1-2.7-2.2-3.9c-0.3-0.3-0.6-0.5-0.9-0.8
			c-0.1-0.1-0.2-0.3-0.2-0.4c0.1-0.3-0.1-0.5-0.3-0.6c-0.8-0.3-1.3-1-2-1.5c-0.5-0.3-0.9-0.7-1.4-1c-0.1-0.1-0.2,0-0.4,0
			c-0.2,0-0.4,0-0.6,0c0-0.2,0-0.3,0.1-0.6c-0.4,0-0.8-0.1-1.1,0.2c-0.1,0.1-0.3,0.1-0.6,0.1c0.1-0.2,0.1-0.2,0.1-0.3
			c0.1-0.1,0.2-0.3,0.3-0.4c-0.2-0.1-0.3-0.1-0.5-0.2c-0.2-0.1-0.3-0.2-0.5-0.4c-0.4,0.2-0.7,0.2-0.7-0.4c0-0.1-0.1-0.1-0.1-0.2
			c-0.2-0.2-0.3-0.4,0-0.5c0.2-0.1,0.5-0.1,0.6,0.1c0.3,0.3,0.5,0.6,0.9,0.9c0.4,0.3,0.8,0.5,1.2,0.8c0,0,0.1-0.1,0.1-0.1
			c-0.4-0.4-0.7-0.7-1.1-1.1c-0.4-0.4-0.7-0.9-1.1-1.3c-0.5-0.5-0.9-1-1.5-1.4c-0.2-0.1-0.7,0-1,0.1C29.1,31.9,29,32.1,28.8,32.2z
			 M47.9,57.3c0,0,0.1,0,0.1,0c0-0.2,0-0.4,0-0.6c-0.1-0.6-0.1-1.2-0.2-1.7c-0.2-1-0.3-2-0.6-2.9c-0.3-1.1-0.8-2.2-1.3-3.3
			c-0.3-0.7-0.4-1.6-0.8-2.2c-0.5-0.8-0.8-1.6-1.2-2.5c-0.1-0.3-0.3-0.5-0.5-0.8c-0.5-0.7-1-1.3-1.4-2c-0.3-0.5-0.9-0.7-1.4-0.5
			c0,0.1,0,0.1,0.1,0.2c0.5,0.9,1.1,1.8,1.6,2.7c0.4,0.7,0.7,1.5,1.1,2.3c0.1,0.2,0.2,0.4,0.3,0.6c0.1,0.2,0.3,0.4,0.4,0.5
			c0,0.2-0.2,0.5-0.1,0.7c0.4,1.1,0.9,2.1,1.4,3.2c0.2,0.5,0.6,0.9,0.9,1.5c-0.2,0.3,0,0.7,0.3,1c0.2,0.3,0.4,0.6,0.7,0.8
			c0,0,0,0-0.1,0.1c-0.1-0.1-0.2-0.1-0.4-0.2C47.1,55.2,47.5,56.2,47.9,57.3z M47.5,51.8c0.1,0,0.2,0,0.2,0c0-0.2,0-0.5,0-0.7
			c-0.1-0.5-0.1-1-0.2-1.5c-0.1-0.5-0.1-0.9-0.2-1.4c-0.2-0.7-0.4-1.4-0.6-2.2c-0.4-1.4-0.7-2.8-1.8-3.9c-0.6-0.6-1.2-0.5-1.9-0.7
			c0.1,0.5,0.2,1,0.5,1.2c0.6,0.5,0.8,1.2,1,1.8c0.2,0.4,0.2,0.8,0.5,1.1c0.4,0.4,0.6,0.9,0.8,1.5c0.1,0.4,0.2,0.7,0.3,1.1
			c0,0.1,0.1,0.3,0.2,0.3c0.4,0,0.4,0.2,0.3,0.5c-0.1,0.1,0,0.3,0,0.4c0.1,0.4,0.2,0.8,0.4,1.3C47.2,51.1,47.4,51.5,47.5,51.8z
			 M32.5,24c0.1,0,0.3,0,0.5-0.1c0.7-0.1,0.8-0.4,0.3-0.9c-0.1-0.1-0.2-0.3-0.3-0.4c-0.5-0.5-0.7-0.5-1.2,0.1
			c-0.1,0.1-0.1,0.2-0.2,0.2c-0.3,0.9-1,1.2-1.9,1.3c-0.1,0-0.3,0.2-0.4,0.3c-0.2,0.3-0.4,0.6-0.7,0.8c-0.6,0.3-0.7,0.5-0.5,1.4
			c0.1,0.5,0.5,0.5,0.9,0.5c0.1,0,0.2,0,0.3,0c0.9,0.3,1.8-0.5,1.5-1.6c-0.1-0.5,0-0.9,0.3-1.3c0.1-0.1,1.1-0.4,1.1-0.4
			C32.3,24,32.4,24,32.5,24z M50.7,32.9c0,0-0.1,0-0.1,0c0.1,0.4,0.2,0.8,0.3,1.2c0.5,1.2,0.7,2.4,0.7,3.6c0,0.5,0.1,1-0.5,1.2
			c-0.4,0.1-0.3,0.3-0.2,0.6c0.4,0.9,0.9,1.7,1.3,2.6c0.1,0.2,0.2,0.4,0.4,0.6c0,0,0.1-0.1,0.1-0.1c0-0.2,0-0.3,0-0.5
			c0,0,0.1,0,0.1,0c0.1,0.1,0.2,0.3,0.3,0.4c0,0,0.1,0,0.1,0c-0.1-1-0.1-2-0.3-2.9c0-0.4-0.2-0.7-0.4-1.1c0-0.1,0.1-0.4,0-0.5
			c-0.1-0.1-0.4-0.1-0.6-0.2c0.1-0.1,0.2-0.3,0.3-0.5c0.1-0.2,0.2-0.5,0.1-0.5c-0.4-0.2-0.3-0.6-0.4-0.9c-0.4-1-0.8-1.9-1.1-2.9
			C50.9,33,50.8,32.9,50.7,32.9z M50.7,38.5c0.6,0,0.6,0,0.6-0.7c0-0.2,0-0.3,0-0.5c-0.2-0.8,0.2-1.7-0.6-2.3c0,0-0.1-0.2,0-0.2
			c0.1-0.6-0.2-1.1-0.3-1.6c-0.1-0.2-0.6-0.4-0.8-0.3c-0.2,0.2-0.3,0.4-0.1,0.6c0.1,0.1,0.2,0.3,0.3,0.4c0.1,0.3,0.3,0.6,0.4,0.9
			c0.1,0.1,0.1,0.3,0.1,0.4c0.2,0.6,0.5,1.1,0.7,1.7c0,0.1,0,0.2,0,0.3c-0.8-1.3-1.3-2.7-2.3-3.8C49.3,35.2,50,36.8,50.7,38.5z
			 M47.6,46.7c0.1-0.2,0.4-0.4,0.4-0.6c0-0.6-0.1-1.2-0.2-1.8c-0.2-0.7-0.4-1.4-0.7-2.1c0-0.1-0.2-0.3-0.3-0.3c-0.3,0-0.6,0-0.9,0.1
			c0.1,0.3,0.3,0.5,0.4,0.7c0.1,0.2,0.2,0.4,0.3,0.6c0.1,0.3,0.2,0.6,0.2,0.9c0.2,0.7,0.3,1.5,0.5,2.2c0.2,0.7,0.4,1.3,0.7,2.1
			C48.3,47.8,48.1,46.8,47.6,46.7z M45.1,51.9c0,0.8,0,1.5,0,2.3c0.3-0.1,0.4-0.2,0.5-0.2c0.1,0,0.2,0,0.2,0c-0.6,0.5-0.2,1-0.1,1.4
			c0,0.1,0.2,0.3,0.4,0.3c0.5,0,0.4,0.3,0.2,0.5c-0.3,0.3-0.1,0.6,0,0.9c0.1,0.1,0.4,0.1,0.5,0.2c0,0.3,0,0.6,0,0.9
			c0,0.1,0.2,0.2,0.4,0.3c0.1-0.2,0.2-0.3,0.2-0.5c0-0.4-0.1-0.8-0.2-1.2c-0.3-1-0.4-2-1.2-2.8C46.2,53.6,45.7,52.2,45.1,51.9z
			 M39.8,15.4c0.1,0,0.1,0,0.2,0.1c0.4,0.5,0.7,0.5,1.2,0.2c0.1-0.1,0.2-0.2,0.2-0.3c-0.1-0.6-0.7-0.9-1.3-0.9c-0.1,0-0.2,0-0.3,0
			c-0.6-0.3-1.3-0.1-1.9,0.1c-0.1,0-0.3,0.3-0.3,0.4c0,0.9,0.8,0.7,1.3,1C39.3,16.2,39.7,16,39.8,15.4z M43.9,16.8
			c-0.1,0.1-0.2,0.2-0.3,0.3c-0.3,0.5-0.7,0.9-1.4,0.7c-0.1,0-0.3,0.2-0.3,0.3c-0.1,0.3,0.3,1.1,0.7,1.1c0.6,0,1.2-0.1,1.9-0.2
			c-0.2-0.2-0.2-0.5-0.4-0.5c-0.6-0.2-0.3-0.5-0.1-0.8C44.2,17.5,44.2,17.2,43.9,16.8z M33.9,22.8c0,0.3,0,0.7,0,1
			c0,0.2,0.2,0.3,0.4,0.4c0.1,0.1,0.3,0,0.5,0c0.3,0,0.8,0.1,0.9-0.1c0.2-0.2,0.1-0.6,0.2-0.9c0.1-0.3,0-0.4-0.3-0.6
			C35,22.2,34.4,22.4,33.9,22.8z M32.4,24.5c0,0,0-0.1,0-0.1c-0.3,0.1-0.6,0.2-0.9,0.4c-0.4,0.3-0.4,0.4,0,0.6
			c0.2,0.1,0.5,0.3,0.7,0.4c0.3,0.1,0.7,0.2,1.1,0.2c0.2,0,0.5-0.3,0.4-0.3c-0.1-0.4,0.2-0.9-0.3-1.2c-0.1-0.1-0.3,0-0.4,0
			C32.8,24.4,32.6,24.4,32.4,24.5z M42.4,17.3C42.4,17.3,42.4,17.3,42.4,17.3c0.1,0,0.2,0,0.3,0c0.3,0,0.6-0.5,0.5-0.7
			c-0.5-0.8-1.1-1-1.9-0.4c-0.1,0.1-0.2,0.1-0.3,0.2c-0.1,0.2-0.2,0.4-0.2,0.6c0,0.1,0.2,0.3,0.4,0.3C41.6,17.4,42,17.3,42.4,17.3z
			 M33.5,44c-0.4,1.2,0.9,2.9,1.9,2.8C34.8,45.9,34.1,45,33.5,44z M49.9,30.9C50,30.9,50,30.9,49.9,30.9c0-0.2,0-0.4-0.1-0.6
			c-0.5-1.3-0.9-2.6-1.4-3.9c-0.1-0.3-0.3-0.7-0.8-0.6C48.4,27.4,49.2,29.1,49.9,30.9z M36.6,50.8c0.1,0.9,1,0.8,1.8,0.9
			c-0.2-0.4-0.3-0.7-0.5-1c-0.1-0.1-0.3-0.1-0.5,0C37.2,50.6,36.9,50.7,36.6,50.8z M37.3,50c-0.2-0.5-0.3-1-0.4-1.4
			c0-0.1-0.3-0.2-0.3-0.2c-0.3,0.2-0.6,0.4-0.9,0.6c0,0,0.2,0.3,0.2,0.3c0.6-0.2,0.8,0.1,1.1,0.5C37.1,50,37.2,50,37.3,50z
			 M37.8,52.2c0,0-0.1,0.1-0.1,0.1c0.1,0.3,0.2,0.7,0.4,1c0.1,0.1,0.4,0.2,0.6,0.2c0.1,0,0.4-0.2,0.4-0.3c0-0.2-0.1-0.4-0.2-0.5
			C38.6,52.5,38.2,52.4,37.8,52.2z M34.9,47.6c0.2,0.4,0.4,0.7,0.6,1.1c0.3-0.3,0.5-0.5,0.7-0.7c0.1-0.1,0.1-0.3,0-0.5
			c0-0.1-0.2-0.2-0.3-0.1C35.6,47.4,35.3,47.5,34.9,47.6z M46.8,30c0,0-0.1,0-0.1,0c0,0.1,0.1,0.3,0.1,0.4c0.2,0.4,0.3,0.7,0.5,1.1
			c0.1,0.3,0.3,0.5,0.5,0.8c0.1,0,0.1-0.1,0.2-0.1C47.7,31.5,47.6,30.6,46.8,30z M41.2,57.3c-0.3-0.3-0.6-0.6-0.8-0.8
			c0,0-0.2,0.2-0.2,0.2c0.2,0.3,0.4,0.6,0.6,0.9C40.8,57.7,41,57.5,41.2,57.3z M41.6,59.6c0.2,0.3,0,0.8,0.6,0.7
			c0.1,0,0.3-0.3,0.3-0.4C42.3,59.5,42,59.4,41.6,59.6z M44.1,55.3c0.6-0.6,0.4-1.4-0.2-1.5C44,54.3,44.1,54.8,44.1,55.3z
			 M43.3,61.3c-0.2-0.3-0.5-0.5-0.7-0.7c0,0-0.3,0.2-0.3,0.2c0.2,0.2,0.4,0.5,0.6,0.7C43,61.6,43.1,61.4,43.3,61.3z M53.1,42.8
			c-0.4,0.4-0.4,0.7,0.1,1.3C53.4,43.7,53.4,43.3,53.1,42.8z M39.4,53.9c-0.1,0-0.1,0-0.2,0c0,0.2-0.1,0.4,0,0.6
			c0.1,0.2,0.3,0.3,0.5,0.5c0.1-0.1,0.2-0.2,0.1-0.3C39.6,54.4,39.5,54.1,39.4,53.9z M41.4,58c-0.1,0-0.1,0-0.2,0
			c-0.1,0.2-0.2,0.4-0.2,0.5c0,0.1,0.2,0.2,0.4,0.4c0.1-0.1,0.3-0.3,0.2-0.4C41.7,58.4,41.5,58.2,41.4,58z M44.8,56
			c-0.2-0.2-0.3-0.3-0.4-0.4c-0.1,0.1-0.2,0.2-0.2,0.3c0.1,0.2,0.2,0.5,0.3,0.7C44.5,56.4,44.6,56.2,44.8,56z M45.9,67.6
			c-0.1,0-0.1,0.1-0.2,0.1c0.1,0.2,0.2,0.4,0.3,0.6c0,0,0.2,0.1,0.2,0.1c0.1,0,0.1-0.2,0.1-0.2C46.2,68,46,67.8,45.9,67.6z M40,55.4
			c-0.2,0.1-0.3,0.2-0.4,0.3c0.1,0.1,0.2,0.2,0.3,0.3c0.1-0.1,0.2-0.2,0.3-0.3C40.2,55.7,40,55.6,40,55.4z M48.5,43.2
			c0,0,0.1-0.1,0.1-0.1c-0.2-0.2-0.3-0.3-0.5-0.5c0,0-0.1,0.1-0.1,0.1C48,43,48.1,43.3,48.5,43.2z M45.7,69.3c0-0.6-0.1-0.7-0.6-0.7
			C45.3,68.8,45.5,69,45.7,69.3z M44.5,70.1c0.4,0.4,0.7,0.3,0.8-0.2C45.1,69.9,44.8,70,44.5,70.1z"/>
		<path fill-rule="evenodd" clip-rule="evenodd" fill="#FFFFFF" d="M24.4,39.2c-0.3,0.1-0.6,0.2-0.9,0.2c0.1,0.8,0.5,1.2,1.4,1
			c-0.1,0-0.1-0.1-0.2-0.1c-0.2-0.1-0.6-0.1-0.4-0.4c0.1-0.2,0.5-0.3,0.8-0.2c0.4,0.1,0.8,0.4,1,0.9c0.2,0.5,0.6,0.9,0.8,1.4
			c0.1,0.3,0,0.7,0,1c0,0.2-0.1,0.4-0.1,0.6c-0.1,0.3-0.3,0.7-0.4,1c-0.1,0.2-0.2,0.4,0,0.6c0.2,0.2,0.4,0.6,0.8,0.3
			c0.4-0.3,0.9-0.5,0.8-1.2c0-0.1,0.1-0.3,0.1-0.3c0.1,0,0.3,0,0.3,0.1c0.2,0.2,0.5,0.4,0.2,0.8c-0.2,0.4,0.2,1.6,0.6,1.9
			c0.4,0.3,0.7,0.5,0.8,1c0,0.1,0.3,0.2,0.4,0.3c0.2,0.1,0.3,0.1,0.6,0.2c-0.6,0.4-1.4,0.3-1.7-0.3c-0.2-0.4-0.4-0.2-0.7-0.2
			c-0.4,0.1-0.7,0.3-1.1,0.4c-1,0.4-2,0.7-3.1,1.1c-0.7,0.2-1.4,0.3-2.1,0.5c-1.2,0.3-2.4,0.8-3.5,1.1c-1.2,0.4-2.4,0.7-3.6,1.1
			c-1.2,0.4-2.3,1-3.4,1.4c-0.7,0.3-1.5,0.5-2.3,0.8c-0.7,0.3-1.5,0.5-2.2,0.8C7.1,54.9,6.9,55,6.7,55c-0.5,0.1-0.8,0.3-0.8,0.9
			c0,0.1-0.1,0.2-0.2,0.4c-0.1,0.1-0.1,0.3-0.1,0.4c0.1,0.2,0.3,0.3,0.5,0.4c0-0.2,0.1-0.4,0.2-0.6c0.5,0,1.1,0.4,1,0.9
			c0,0.1-0.3,0.3-0.4,0.3c-0.4-0.1-0.8-0.2-1.2-0.3c-0.2-0.1-0.4-0.2-0.6-0.3c-0.2-0.2-0.3-0.2-0.4,0.1c-0.4,0.8-0.5,2,0.2,2.7
			c0.2,0.2,0.5,0.3,0.7,0.5c-0.7,0.6-0.7,0.6-1.4,0.1c-0.4-0.3-0.8-0.5-0.9-1.1c0-0.2,0-0.3-0.1-0.5c0-0.1,0-0.3-0.1-0.4
			c-0.3-0.5-0.3-0.7,0.1-1.2c0.2-0.2,0.3-0.4,0.5-0.5c0,0-0.1-0.1-0.1-0.1c-0.1,0-0.2,0-0.3,0.1c-0.5,0.7-1,1.4-1.5,2.1
			c-0.1,0.1-0.1,0.3-0.2,0.4c-0.6,0.5-0.6,0.7-0.3,1.4c-0.3,0.2-0.6,0.3-0.9,0.5c-0.1,0-0.3-0.1-0.5-0.1c0.1-0.1,0.1-0.3,0.2-0.4
			c0.2-0.4,0.4-0.8,0.6-1.2C0.9,59,1,58.8,1.2,58.7c0.4-0.3,0.5-0.6,0.3-1c-0.2-0.4-0.1-0.6,0.2-0.8c0.4-0.3,0.8-0.5,1.1-0.8
			c0.2-0.2,0.5-0.4,0.7-0.6c0.1-0.1,0.3-0.1,0.4-0.1C4,55.4,4,55.5,4,55.6c0,0.1,0.1,0.2,0.1,0.2c0.1,0,0.2,0,0.2-0.1
			C4.9,54.6,6,54.3,7,53.9c1.6-0.7,3.2-1.1,4.7-1.9c1.1-0.6,2.3-1,3.4-1.4c0.9-0.4,1.8-0.7,2.7-1.1c1.4-0.6,2.7-1.2,4.1-1.8
			c0.8-0.3,1.7-0.6,2.6-0.9c0.4-0.1,0.8-0.3,1.3-0.5c0.3-0.1,0.4-0.4,0.1-0.7c-0.1-0.1-0.2-0.2-0.4-0.4c-0.5-0.4-0.5-0.6,0-1
			c0.5-0.3,0.8-0.7,0.6-1.3c0-0.1,0.1-0.2,0.1-0.3c0.1-0.3,0.2-0.5-0.3-0.5c-0.1,0-0.2-0.2-0.3-0.3c-0.4-0.3-0.6-0.8-1.1-0.9
			c-1.4-0.6-2.5-1.5-3.7-2.5c-0.3-0.2-0.6-0.4-0.9-0.6c-0.1-0.1-0.2-0.2-0.4-0.4c-0.1,0-0.4-0.2-0.7-0.3c0.4-0.2,0.6-0.4,0.8-0.5
			c0.4-0.2,0.3-0.4,0-0.6c-0.1,0-0.1,0.1-0.1,0.1c-0.2,0.1-0.3,0.3-0.4,0.4c-0.1-0.2-0.2-0.4-0.4-0.6c0,0,0-0.1,0-0.1
			c-0.7-0.5-0.6-1.4-1-2c-0.2-0.4-0.4-0.9-0.5-1.3c-0.2-1-0.4-1.9-0.6-2.9c0-0.2,0-0.3,0-0.5c-0.1-0.3-0.1-0.5-0.2-0.8
			c-0.2-0.6-0.5-1.2-0.7-1.8c0-0.1,0-0.1,0-0.2c0.4-0.9,0.1-1.8,0.4-2.7c0.2-0.8,0.5-1.5,1-2.1c0.1-0.1,0.4-0.1,0.6-0.1
			c0.4,0.1,0.5,0.1,0.5-0.3c0-0.2,0.1-0.5,0.2-0.7c0.4,0.2,0.1,0.5,0.1,0.7c0,0.2-0.1,0.5-0.2,0.7c0.4,0,0.4-0.3,0.5-0.5
			c0-0.3,0.1-0.6,0.6-0.5c-0.2,0.6-0.3,1.2-0.8,1.6c-0.4,0.3-0.7,0.4-1.1,0.1c-0.3-0.2-0.5-0.2-0.6,0.2c-0.4,1.3-0.6,2.6-0.5,3.9
			c0,0.2,0,0.3,0,0.5c0.3-0.3,0.1-1,0.9-1c0.2,1.2,1,1.1,2.1,0.8c-0.2,0.6-0.6,0.8-1.1,0.9c-0.4,0.1-0.8,0-1-0.5
			c0-0.1-0.2-0.2-0.4-0.3c0,0.1-0.1,0.3-0.1,0.4c0.1,0.8,0.3,1.7,0.5,2.5c0.1,0.7,0.3,1.4,0.4,2.2c0.1,0.6,0.3,1,0.6,1.4
			c0.1,0.1,0.1,0.2,0.1,0.4c0.2,0.4,0.4,0.8,0.7,1.2c0.2-0.5,0.5-0.8,1.2-0.9c-0.1,0.2-0.2,0.3-0.2,0.4c0,0.2,0,0.4,0.1,0.5
			c0.4,0.7,0.9,1.3,1.4,2c0.1,0.1,0.3,0.3,0.5,0.3c0.6,0.3,1.3,0.6,1.7,1.1c0.1,0.2,0.4,0.2,0.6,0.3C24.3,39.1,24.4,39.2,24.4,39.2z
			 M28.1,45c-0.7,0.6-1.2,1.1-1.7,1.7c-0.1,0.1-0.2,0.3-0.2,0.5c0,0.1,0.2,0.3,0.4,0.4c0.7,0.1,1.4-0.1,2.1-0.5
			C27.9,46.5,27.8,45.9,28.1,45z M25,47.7c-0.3-0.2-0.4-0.4-0.6-0.4c-0.1,0-0.4,0.3-0.4,0.4c0.2,0.3-0.2,0.9,0.3,0.9
			C24.5,48.6,24.7,48.1,25,47.7z M21.2,37.9c0.7,0.4,1.1,1.3,2,1.6C23.1,38.9,21.9,37.9,21.2,37.9z M20.7,49.3
			c0.5,0,0.8-0.1,0.8-0.5c0-0.1-0.2-0.3-0.2-0.3c-0.3,0.1-0.8,0-0.8,0.5C20.5,49.1,20.7,49.3,20.7,49.3z M19.9,49.7
			c0-0.1,0-0.1,0-0.2c-0.1-0.1-0.3-0.2-0.4-0.2c-0.3,0-0.6,0.1-0.5,0.5c0,0.1,0.3,0.3,0.4,0.3C19.5,50,19.7,49.8,19.9,49.7z
			 M4.3,57.1c-0.1,0-0.1,0-0.2-0.1c-0.6,0.4-0.8,0.8-0.3,1.2C4,57.8,4.2,57.4,4.3,57.1z M18.6,50.4c0-0.1,0-0.2,0-0.3
			c-0.3,0-0.5-0.1-0.8-0.1c0,0.2,0,0.3,0,0.5C18.1,50.4,18.4,50.4,18.6,50.4z M16.3,50.7c0,0.1,0,0.1,0,0.2c0.2,0,0.5,0,0.7-0.1
			c0.1,0,0.1-0.2,0.1-0.3c-0.1,0-0.2-0.1-0.3-0.1C16.7,50.5,16.5,50.6,16.3,50.7z M23.2,48.6c0.1,0,0.1,0,0.1-0.1
			c0-0.2-0.1-0.5-0.1-0.7c-0.2,0.1-0.4,0.2-0.7,0.3C22.8,48.3,23,48.5,23.2,48.6z M22.4,48.5c-0.1,0.2-0.2,0.3-0.2,0.4
			c0,0.1,0.2,0.3,0.2,0.3c0.1-0.1,0.2-0.2,0.4-0.3C22.6,48.7,22.5,48.6,22.4,48.5z"/>
		<path fill-rule="evenodd" clip-rule="evenodd" fill="#FFFFFF" d="M33.5,9.6c-0.4,0.3-0.7,0.7-1.1,1c0,0,0,0.1,0.1,0.1
			c0.1,0,0.2,0,0.3,0c0.5-0.3,1-0.7,1.5-1c0.4-0.3,0.7-0.7,1.3-0.4c-0.4,0.3-0.7,0.6-1.1,0.8c-0.8,0.5-1.7,0.9-2.5,1.3
			c-0.8,0.5-1.6,1.1-2.5,1.6c-1,0.6-1.9,1.1-2.9,1.7c-0.6,0.4-1.2,0.8-1.8,1.2c-0.6,0.3-1.1,0.6-1.7,0.9c-1.1,0.6-2.2,1.3-3.4,1.9
			c-1,0.6-2,1.1-3.1,1.6c-1,0.5-2.1,0.8-3,1.4c-0.5,0.3-0.9,0.1-1.3,0.2c-0.1,0-0.3-0.1-0.4-0.2c1.3-1,2.4-1.8,3.5-2.7
			c1.1-0.9,2-1.8,3.1-2.7c1.4-1.1,2.7-2.1,4.1-3.1c1.1-0.8,2.3-1.6,3.5-2.4c0.2-0.2,0.4-0.4,0.6-0.7c-0.4,0-0.7,0.1-1.1,0.1
			c-1.4,0.2-2.8,0.3-4.2,0.6c-1.4,0.3-2.7,0.7-4,1c-0.9,0.2-1.8,0.4-2.7,0.6c-1.2,0.3-2.5,0.4-3.7,0.8c-1.3,0.4-2.6,0.9-3.8,1.3
			c-0.1,0-0.2,0-0.3,0c0-0.5,0.2-0.7,0.6-0.9c1.5-0.6,2.9-1.3,4.4-1.9c0.8-0.4,1.5-0.8,2.3-1.2c0.9-0.4,1.9-0.9,2.9-1.3
			c1.7-0.7,3.3-1.4,5-2.1c1-0.4,2-0.7,3-1.1c1.1-0.4,2.2-0.8,3.3-1.2c1.6-0.6,3.3-1.3,4.9-1.9c0.8-0.3,0.9-0.2,0.8,0.6
			c0,0.3-0.1,0.5-0.2,0.8c-0.1,0-0.1,0-0.2,0c0-0.2,0-0.4-0.1-0.6c0-0.1-0.1-0.3-0.2-0.4c-0.1,0.1-0.4,0.2-0.4,0.3
			c-0.2,0.3-0.2,0.6-0.3,0.9c-0.1,0-0.1,0-0.2,0c0-0.2,0-0.5,0-0.9c-0.2,0.4-0.4,0.6-0.6,1c-0.1-0.2-0.2-0.4-0.3-0.6
			c-0.1,0.2-0.2,0.4-0.2,0.6c-0.2-0.1-0.3-0.2-0.5-0.3C31.1,4.8,31,5,30.9,5.3c-0.2-0.1-0.4-0.2-0.6-0.3c-0.2-0.2-0.4-0.2-0.4,0.1
			c-0.1,0.5-0.4,0.4-0.7,0.3c-0.3-0.1-0.5-0.1-0.7,0.2c0,0.1-0.1,0.1-0.1,0.1c-0.6,0.1-1.3,0.2-1.9,0.4c-0.8,0.2-1.6,0.6-2.4,0.9
			c-0.9,0.3-1.7,0.7-2.6,1.1c-1.4,0.6-2.8,1.1-4.2,1.7c-0.6,0.3-1.1,0.6-1.8,1c0.2,0,0.3,0,0.4,0c0.6-0.2,1.2-0.4,1.8-0.6
			c1.1-0.2,2.2-0.7,3.3-1c0.7-0.2,1.5-0.4,2.2-0.6c1-0.3,1.9-0.6,2.9-0.9c1.3-0.4,2.6-0.9,3.9-1.3c0.5-0.1,1-0.1,1.4-0.3
			c0.6-0.2,1.2-0.4,1.9-0.5c0.4-0.1,0.7-0.2,1.1-0.3c0.1,0,0.3,0.1,0.4,0.2c-0.1,0.1-0.2,0.3-0.3,0.3c-0.8,0.2-1.6,0.5-2.3,0.7
			c-0.3,0.1-0.7,0-1,0.1c-1.2,0.4-2.3,0.8-3.4,1.2c-0.2,0.1-0.4,0.1-0.5,0.1c-1.1,0.3-2.2,0.7-3.3,1c-0.5,0.1-1,0.2-1.5,0.3
			c-1.3,0.4-2.7,0.8-4,1.2c-1.4,0.4-2.8,0.9-4.2,1.3c-0.8,0.3-1.5,0.6-2.2,0.9c-0.1,0-0.1,0.1-0.1,0.3c0.6-0.1,1.1-0.2,1.7-0.3
			c1.2-0.2,2.3-0.5,3.5-0.8c1.7-0.4,3.4-0.8,5.1-1.1c2-0.4,4.1-0.6,6.1-1c1.4-0.2,2.8-0.6,4.1-0.8c1-0.2,2-0.3,3.1-0.4
			c0.1,0,0.3,0.1,0.5,0.1C34.9,8.9,34.2,9.2,33.5,9.6c0.2-0.2,0.3-0.3,0.3-0.4c0,0-0.1-0.1-0.1-0.1c-0.2,0.1-0.5,0.2-0.7,0.4
			c-0.4,0.3-0.7,0.6-1.1,0.9c-0.8,0.6-1.7,1.2-2.6,1.8c-0.7,0.5-1.5,1-2.2,1.5c0,0,0.1,0.1,0.1,0.1c0.9-0.5,1.9-1,2.8-1.6
			c0.8-0.5,1.5-1.2,2.2-1.7C32.7,10.2,33.1,9.9,33.5,9.6z M25.3,12.4c-0.4,0.3-0.8,0.5-1.2,0.8c-0.1,0-0.2,0-0.3,0.1
			c-0.6,0.4-1.3,0.9-1.9,1.4c-1.4,1-2.9,2-4.1,3.4c-0.6,0.2-1,0.6-1.4,1c-0.1,0.1-0.3,0.2-0.4,0.3c-0.8,0.6-1.6,1.2-2.4,1.8
			C16,20.9,31.8,11,32.5,9.2c-0.3,0.2-0.9-0.3-0.9,0.5c0,0.1-0.2,0.1-0.2,0.1c-0.3,0.2-0.6,0.3-0.8,0.5c-1.1,0.9-2.2,1.9-3.4,2.7
			c-1.1,0.7-2,1.6-3,2.4c-0.4,0.3-0.9,0.5-1.4,0.8c0,0,0-0.1-0.1-0.1c2.9-2.2,5.7-4.3,8.6-6.5c0,0,0-0.1-0.1-0.1
			c-0.3,0.2-0.6,0.3-0.9,0.5c-1.9,1.4-3.7,2.8-5.6,4.2c-0.3,0.2-0.6,0.3-0.9,0.6c-1.2,0.9-2.5,1.9-3.7,2.9c-0.2,0.2-0.5,0.3-0.7,0.4
			c0,0,0-0.1-0.1-0.1c0.1-0.1,0.2-0.2,0.3-0.4c0,0,0-0.1-0.1-0.1c-0.9,0.6-1.9,1.3-2.8,1.9c0,0-0.1-0.1-0.1-0.1
			c0.2-0.2,0.4-0.4,0.6-0.6c0.2-0.2,0.4-0.4,0.7-0.7c0.2-0.1,0.4-0.1,0.5-0.2c1.3-1,2.5-1.9,3.8-2.9c0.1-0.1,0.3-0.2,0.4-0.3
			c0.5-0.4,1-0.9,1.5-1.3C24.7,13.2,24.9,12.7,25.3,12.4c0.4-0.2,0.7-0.4,1.1-0.6c0.8-0.5,1.5-0.9,2.4-1.4c-0.2,0.2-0.3,0.4-0.4,0.5
			c0,0,0.1,0.1,0.1,0.1c0.4-0.3,0.9-0.7,1.3-1c0,0,0-0.1-0.1-0.1c-0.1,0-0.2,0-0.3,0c-0.5,0.1-1,0.2-1.5,0.4c-0.1,0-0.2,0.1-0.3,0.2
			c-0.3,0.4-0.7,0.7-1,1.1c-0.1,0.1-0.1,0.2-0.2,0.4C26,11.9,25.6,12.2,25.3,12.4z M27.1,11.8c0-0.1-0.1-0.1-0.1-0.2
			c-0.3,0.3-0.6,0.5-0.9,0.8c0,0,0.1,0.1,0.1,0.1C26.4,12.3,26.7,12,27.1,11.8z"/>
		<path fill-rule="evenodd" clip-rule="evenodd" fill="#FFFFFF" d="M43.9,1.8c-0.2-0.1-0.4-0.2-0.6-0.2c-0.3-0.1-0.5-0.1-0.8-0.1
			c-0.1,0-0.2,0-0.3-0.1C42,0.8,41.4,1.1,41,1.1c-0.5,0.1-0.7,0-0.9-0.4c-0.4,0.2-0.7,0.5-1.1,0.6c-0.3,0.1-0.7,0-1-0.1
			c-0.4,0.1-0.8,0.2-1.2,0.3c-0.1,0-0.2,0.1-0.3,0.2C36.1,2,36,2,35.6,1.4c-0.2,0.7-0.5,1.2-1.4,1.1c0.2-0.1,0.2-0.3,0.3-0.3
			C35,2,35.3,1.8,35.4,1.3c0-0.3,0.7-0.6,1.2-0.5c0.8,0.2,1.4-0.1,1.9-0.5c0.3-0.3,0.6-0.3,0.9,0c0.1,0.1,0.3,0.1,0.4,0.1
			c1-0.6,1.8-0.5,2.6,0.4c0.2,0.2,0.4,0.3,0.7,0.3C43.5,1.2,43.8,1.3,43.9,1.8z"/>
		<path fill-rule="evenodd" clip-rule="evenodd" fill="#FFFFFF" d="M16.1,21c1.1-0.5,2.2-1,3.4-1.5c0.4-0.2,0.8-0.4,1.2-0.6
			c1.5-0.8,3-1.5,4.5-2.3c0.6-0.3,1.1-0.6,1.7-1c0.4-0.3,0.9-0.5,1.3-0.9c0.6-0.4,0.6-0.4,0.9,0.1c-1.2,0.7-2.4,1.4-3.6,2
			c-1.2,0.6-2.5,1.2-3.7,1.8c-0.7,0.3-1.3,0.7-2,1c-0.4,0.2-0.8,0.3-1.2,0.4c-0.7,0.3-1.3,0.6-2,0.9c-0.1,0.1-0.3,0.1-0.4,0.1
			C16.1,21.1,16.1,21,16.1,21z"/>
		<path fill-rule="evenodd" clip-rule="evenodd" fill="#FFFFFF" d="M34.3,17.7c-0.3,0.2-0.4,0.9-1,0.6c-0.2-0.1-0.4-0.3-0.6-0.4
			c0.2-0.2,0.3-0.3,0.5-0.5c0-0.7-0.2-0.9-1-1c-0.1,0-0.2,0-0.2,0c-0.8-0.6-1.6-0.1-2.4,0.1c-0.1,0-0.2,0.1-0.3,0.1
			c-0.1,0-0.3-0.1-0.4-0.1c0.1-0.1,0.2-0.2,0.3-0.3c0.4-0.1,0.9-0.2,1.3-0.4c0.9-0.4,1.6,0.1,2.3,0.4c0.5,0.2,0.8,0.6,0.9,1.2
			C33.6,17.4,34,17.5,34.3,17.7z"/>
		<path fill-rule="evenodd" clip-rule="evenodd" fill="#FFFFFF" d="M46.4,6.1C46,6,45.7,6,45.5,5.9c-0.2-0.3-0.4-0.5-0.6-0.9
			c0.1,0,0.2-0.1,0.3-0.1c0.1-0.1,0.4-0.2,0.4-0.3c0-0.2-0.1-0.5-0.3-0.6c-0.3-0.1-0.3-0.3-0.3-0.6c0-0.2-0.2-0.5-0.2-0.8
			c0-0.2,0-0.4,0-0.6c0.2,0.1,0.4,0.1,0.6,0.2c0,0,0.1,0.1,0.1,0.2c-0.1,0.7,0.4,1.2,0.6,1.7c0.1,0.1,0.3,0.2,0.4,0.3
			c0.5,0.2,0.6,0.6,0.2,1C46.5,5.7,46.4,5.9,46.4,6.1z"/>
		<path fill-rule="evenodd" clip-rule="evenodd" fill="#FFFFFF" d="M43.3,6.5c0.1,0.3,0.1,0.6,0.3,0.7c0.2,0.1,0.5,0.2,0.7,0.1
			c0.4-0.1,0.8-0.3,1.3-0.5c0.1-0.1,0.2-0.3,0.3-0.5c0.1,0,0.2,0.1,0.2,0.1C46,6.7,45.9,7,45.8,7.3c0.1,0.1,0.2,0.4,0.3,0.7
			c0.1,0.3,0,0.5-0.4,0.6c-0.1,0-0.2,0.1-0.2,0.1c-0.5,0.6-1,0.3-1.5,0.1c-0.1,0-0.2-0.3-0.2-0.5c0.1,0,0.3,0,0.4,0
			c0.1,0,0.3,0.1,0.4,0.1c0.3,0.2,0.5,0.2,0.7-0.2c0.1-0.1,0.3-0.2,0.4-0.3c0,0-0.1-0.1-0.1-0.1c-0.6,0-1.3,0-1.9-0.1
			c-0.3-0.1-0.6-0.5-0.8-0.8C42.8,6.7,43.1,6.5,43.3,6.5z"/>
		<path fill-rule="evenodd" clip-rule="evenodd" fill="#FFFFFF" d="M43,26.9c0.2,0.5,0.4,1,0.7,1.4c0.3,0.4,0.8,0.6,1.3,1
			c-0.6,0.5-1.4,0.3-1.7-0.3c-0.2-0.4-0.4-0.7-0.6-1c-0.2-0.4-0.1-0.7,0.1-1C42.9,26.9,42.9,26.9,43,26.9z"/>
		<path fill-rule="evenodd" clip-rule="evenodd" fill="#FFFFFF" d="M19.3,33c-0.4,0-0.7-0.2-0.8-0.6c0-0.1,0-0.3,0.1-0.4
			c0,0,0.2,0,0.3,0.1c0.1,0.1,0.2,0.2,0.3,0.2c0.2,0,0.4,0,0.5,0c0.1-0.1,0.1-0.3,0.1-0.5c0-0.1-0.1-0.2-0.1-0.3
			c0-0.1,0-0.3,0.1-0.4c0.1-0.1,0.3,0,0.4,0.1c0.3,0.2,0.5,0.5,0.3,0.9C20.3,32.6,19.9,33,19.3,33z"/>
		<path fill-rule="evenodd" clip-rule="evenodd" fill="#FFFFFF" d="M38.1,12.1c0-0.1,0-0.2,0-0.2c-0.1-0.2-0.1-0.3-0.2-0.5
			c0.2,0,0.5,0,0.6,0.1c0.2,0.1,0.3,0.6,0.3,0.6c-0.2,0.2-0.5,0.4-0.8,0.4c-0.6,0.1-1.1,0-1.7,0c-0.1,0-0.2-0.1-0.3-0.2
			c0.1-0.1,0.1-0.3,0.2-0.3c0.3-0.1,0.6,0,0.8,0C37.3,12,37.7,12.1,38.1,12.1z"/>
		<path fill-rule="evenodd" clip-rule="evenodd" fill="#FFFFFF" d="M30.1,32.8c-0.2,0.2-0.3,0.3-0.4,0.4c-0.1,0.1-0.2,0.1-0.3,0.2
			c0-0.1-0.1-0.3,0-0.4c0.1-0.2,0.3-0.5,0.6-0.6c0.3-0.2,0.5,0.1,0.6,0.3c0.1,0.2,0.3,0.3,0.4,0.4c0.1,0.2,0.2,0.4,0.3,0.5
			c-0.2,0-0.3,0-0.5,0.1c-0.1,0-0.2,0.1-0.3,0.2C30.4,34,30.2,34,30,34.1c0-0.2,0-0.4,0-0.6c0-0.1,0.2-0.2,0.2-0.3
			C30.3,33.1,30.2,33,30.1,32.8z"/>
		<path fill-rule="evenodd" clip-rule="evenodd" fill="#FFFFFF" d="M18.7,29c0.3,0,0.5,0,0.7,0.1c0.1,0.1,0.1,0.3,0.1,0.5
			c-0.1,0.5-0.3,1-0.9,1.1c-0.4,0.1-0.6,0-0.8-0.2c-0.2-0.2-0.2-0.6-0.3-0.9c0,0,0.2-0.2,0.2-0.2c0.1,0.1,0.2,0.2,0.3,0.3
			c0.2,0.1,0.4,0.3,0.5,0.3c0.2,0,0.4-0.3,0.4-0.4C19,29.5,18.9,29.3,18.7,29z"/>
		<path fill-rule="evenodd" clip-rule="evenodd" fill="#FFFFFF" d="M34.4,31.3c0.4,0.4,0.7,0.7,1,1.1c0.2,0.2,0.3,0.4,0.5,0.6
			c0.1,0.1,0.1,0.2,0.2,0.3c-0.1,0-0.2,0.1-0.3,0.1c-0.2,0-0.5,0-0.7-0.1c-0.1,0-0.2-0.2-0.2-0.3c0-0.4-0.1-0.6-0.6-0.6
			c-0.2,0-0.3-0.2-0.5-0.3C34,31.8,34.2,31.6,34.4,31.3z"/>
		<path fill-rule="evenodd" clip-rule="evenodd" fill="#FFFFFF" d="M28.7,16.8c0,0.2,0,0.4-0.1,0.6c-0.1,0.3-0.4,0.6-0.5,0.9
			c-0.1,0.4-0.2,0.7,0.2,1c0.1,0.1,0.1,0.3,0.2,0.4c-0.2,0-0.4,0.1-0.5,0c-0.2-0.1-0.3-0.3-0.3-0.5c-0.1-0.6-0.1-1.1,0.3-1.6
			c0.2-0.3,0.3-0.6,0.5-0.9C28.6,16.8,28.7,16.8,28.7,16.8z"/>
		<path fill-rule="evenodd" clip-rule="evenodd" fill="#FFFFFF" d="M22.6,36c0.2-0.1,0.4-0.3,0.5-0.3c0.1,0,0.4,0.1,0.4,0.2
			c0,0.2,0,0.7-0.1,0.7c-0.4,0.1-0.9,0.2-1.4,0.2c-0.1,0-0.2-0.3-0.2-0.5c0-0.1,0.3-0.2,0.4-0.2c0.1,0,0.3,0,0.4,0.1
			C22.7,36.1,22.6,36.1,22.6,36z"/>
		<path fill-rule="evenodd" clip-rule="evenodd" fill="#FFFFFF" d="M21.2,34.1c0-0.1,0-0.3,0-0.3c0.2-0.1,0.4-0.2,0.5-0.3
			c0.1,0.1,0.2,0.3,0.2,0.4c0,0.2,0,0.6-0.1,0.6c-0.4,0.1-0.8,0.1-1.3,0.2c0,0-0.2-0.2-0.1-0.3c0-0.1,0.2-0.2,0.3-0.2
			C20.9,34,21,34.1,21.2,34.1z"/>
		<path fill-rule="evenodd" clip-rule="evenodd" fill="#FFFFFF" d="M36.3,7.7c-0.2-0.1-0.5-0.2-0.7-0.3c-0.4-0.3-0.7-0.6-1-0.9
			c-0.1-0.1-0.1-0.3-0.1-0.5c0.2,0,0.4,0,0.5,0.1c0.2,0.2,0.4,0.4,0.6,0.7c0.2,0.3,0.5,0.5,0.7,0.8C36.4,7.6,36.4,7.6,36.3,7.7z"/>
		<path fill-rule="evenodd" clip-rule="evenodd" fill="#FFFFFF" d="M31.6,19c-0.4,0-0.8,0.1-1.2,0.1c-0.4-0.1-0.7,0.1-0.9,0.4
			c-0.1,0.2-0.3,0.3-0.5,0.6c0-0.5,0.7-1.5,1-1.6C30.4,18.3,31.3,18.6,31.6,19z"/>
		<path fill-rule="evenodd" clip-rule="evenodd" fill="#FFFFFF" d="M17.6,23.8c0.1,0.3,0.2,0.7,0.4,0.9c0.2,0.1,0.6,0,1,0
			c-0.1,0.2-0.2,0.4-0.4,0.4c-0.4,0.1-0.8,0.4-1.2-0.1C17.2,24.6,17.2,24.2,17.6,23.8z"/>
		<path fill-rule="evenodd" clip-rule="evenodd" fill="#FFFFFF" d="M21.3,20.9c-0.1,0.5,0,0.8,0.4,1.1c0.1,0,0,0.3-0.1,0.4
			c-0.1,0.1-0.2,0.3-0.4,0.4c-0.1-0.1-0.3-0.2-0.3-0.3c-0.1-0.4-0.1-0.8-0.1-1.2c0-0.1,0.2-0.2,0.2-0.3
			C21.2,20.9,21.2,20.9,21.3,20.9z"/>
		<path fill-rule="evenodd" clip-rule="evenodd" fill="#FFFFFF" d="M42.8,10c0,0.3-0.1,0.5-0.4,0.2c-0.1-0.1-0.2-0.1-0.4-0.1
			c-0.2-0.1-0.5-0.1-0.6-0.2c-0.2-0.1-0.2-0.4-0.4-0.6c0.2,0,0.4,0.1,0.6,0.1c0.2,0,0.4,0.1,0.6,0.1C42.7,9.4,42.9,9.6,42.8,10z"/>
		<path fill-rule="evenodd" clip-rule="evenodd" fill="#FFFFFF" d="M38.3,5.7c0.5,0.4,1,0.9,1.5,1.3c0,0,0,0.2,0,0.2
			c0,0-0.2,0-0.2,0c-0.5-0.3-1-0.7-1.4-1C38,6.2,38,6,38,5.9C38,5.9,38.1,5.8,38.3,5.7z"/>
		<path fill-rule="evenodd" clip-rule="evenodd" fill="#FFFFFF" d="M27.3,29.7c-0.1-0.6,0.3-0.7,0.6-0.9c0.5-0.3,1-0.1,1.4,0.3
			c-0.4,0-0.7,0-1,0.1C28,29.3,27.7,29.5,27.3,29.7z"/>
		<path fill-rule="evenodd" clip-rule="evenodd" fill="#FFFFFF" d="M43.8,9.1c0,0,0,0.1-0.1,0.1c-0.3,0.3-1.6,0.1-1.9-0.2
			c-0.1-0.1-0.1-0.2,0-0.3c0-0.1,0.2-0.1,0.3-0.1c0.1,0,0.3,0.1,0.4,0.2C43,8.9,43.4,9,43.8,9.1z"/>
		<path fill-rule="evenodd" clip-rule="evenodd" fill="#FFFFFF" d="M38.4,20.3c-0.1-0.1-0.1-0.2-0.2-0.3c-0.2-0.5-0.5-0.8-1-1
			c-0.1-0.1-0.1-0.3-0.2-0.4c0.1,0,0.3-0.1,0.4-0.1c0.5,0.4,1,0.8,1.1,1.5c0,0.1,0,0.1,0,0.2C38.5,20.3,38.5,20.3,38.4,20.3z"/>
		<path fill-rule="evenodd" clip-rule="evenodd" fill="#FFFFFF" d="M41.1,11.3c-0.7,0.1-1.4,0.1-2.2,0.2c0.3-0.2,0.5-0.5,0.8-0.7
			c0.1,0,0.2,0,0.3,0c0.2,0,0.4,0.1,0.6,0.1c0.2,0,0.3,0.1,0.5,0.1C41.2,11.2,41.2,11.2,41.1,11.3z"/>
		<path fill-rule="evenodd" clip-rule="evenodd" fill="#FFFFFF" d="M40.3,10.1c0.5,0.1,1.1,0.3,1.6,0.4c0.1,0,0.1,0.3,0.2,0.4
			c-0.1,0-0.3,0-0.4,0c-0.2,0-0.4-0.1-0.5-0.1C40.7,10.8,40.4,10.7,40.3,10.1z"/>
		<path fill-rule="evenodd" clip-rule="evenodd" fill="#FFFFFF" d="M43.6,3.5c-0.4-0.2-1,0-1.1-0.6c0-0.1,0-0.2,0-0.4
			c0.1,0,0.2,0.1,0.3,0.1c0.2,0.1,0.5,0.2,0.7,0.3C43.8,3,43.9,3.1,44,3.2C43.9,3.3,43.8,3.4,43.6,3.5z"/>
		<path fill-rule="evenodd" clip-rule="evenodd" fill="#FFFFFF" d="M40.1,33.2c-0.6,0-1.1,0-1.8,0c0.2-0.2,0.3-0.4,0.4-0.5
			C39,32.5,39.3,32.6,40.1,33.2z"/>
		<path fill-rule="evenodd" clip-rule="evenodd" fill="#FFFFFF" d="M21.7,31.7c-0.2-0.3-0.3-0.4-0.3-0.5c0.2-0.3,0.4-0.6,0.6-0.9
			c0.1,0.2,0.4,0.4,0.3,0.5C22.2,31.1,22,31.4,21.7,31.7z"/>
		<path fill-rule="evenodd" clip-rule="evenodd" fill="#FFFFFF" d="M32.1,19.4c-0.6,0.6-0.6,0.6-1.8,0.5c0.2-0.2,0.3-0.4,0.4-0.4
			c0.3-0.1,0.7-0.2,1-0.3C31.9,19.2,32,19.3,32.1,19.4z"/>
		<path fill-rule="evenodd" clip-rule="evenodd" fill="#FFFFFF" d="M35.6,8.7c0.6-0.2,1-0.3,1.5-0.5c-0.1,0.2-0.1,0.5-0.2,0.5
			C36.6,9.1,36.2,8.9,35.6,8.7z"/>
		<path fill-rule="evenodd" clip-rule="evenodd" fill="#FFFFFF" d="M39.2,31.9c-0.2,0.1-0.3,0.2-0.5,0.2c-0.2,0-0.6,0-0.6,0
			c0-0.4,0.3-0.4,0.6-0.5c0.2,0,0.4,0,0.6,0C39.2,31.7,39.2,31.8,39.2,31.9z"/>
		<path fill-rule="evenodd" clip-rule="evenodd" fill="#FFFFFF" d="M35.5,3.2c0.1-0.2,0.2-0.2,0.3-0.3c0.1,0.3,0.3,0.5,0.4,0.8
			c0,0.1-0.2,0.2-0.2,0.3C35.8,3.7,35.7,3.4,35.5,3.2z"/>
		<path fill-rule="evenodd" clip-rule="evenodd" fill="#FFFFFF" d="M20.6,29.4c-0.2-0.2-0.3-0.3-0.5-0.4c0.1-0.1,0.3-0.3,0.3-0.3
			c0.2,0.1,0.4,0.3,0.6,0.4C20.9,29.2,20.8,29.3,20.6,29.4z"/>
		<path fill-rule="evenodd" clip-rule="evenodd" fill="#FFFFFF" d="M39.5,34.5c0.1-0.2,0.1-0.4,0.2-0.5c0.1-0.1,0.3-0.2,0.5-0.2
			c0.1,0,0.2,0.2,0.2,0.2c0,0.1-0.1,0.2-0.2,0.3C40.1,34.4,39.9,34.4,39.5,34.5z"/>
		<path fill-rule="evenodd" clip-rule="evenodd" fill="#FFFFFF" d="M34.7,6.9c-0.1,0.1-0.3,0.2-0.3,0.2c-0.2-0.2-0.4-0.5-0.6-0.7
			c0,0,0.1-0.1,0.2-0.2C34.2,6.4,34.5,6.6,34.7,6.9z"/>
		<path fill-rule="evenodd" clip-rule="evenodd" fill="#FFFFFF" d="M36.5,33.7c0.2,0.2,0.3,0.3,0.4,0.4c-0.1,0.1-0.3,0.2-0.4,0.2
			c-0.2,0-0.3-0.2-0.5-0.2C36.2,33.9,36.3,33.8,36.5,33.7z"/>
		<path fill-rule="evenodd" clip-rule="evenodd" fill="#FFFFFF" d="M41.6,35.3c-0.4-0.1-0.7-0.1-1.1-0.2c0.4-0.5,0.8-0.3,1.1,0
			C41.6,35.2,41.6,35.2,41.6,35.3z"/>
		<path fill-rule="evenodd" clip-rule="evenodd" fill="#FFFFFF" d="M34.3,37.6c-0.2,0.3-0.4,0.3-0.7,0.2c-0.1,0,0-0.2-0.1-0.3
			c0.2,0,0.5-0.1,0.7-0.1C34.3,37.5,34.3,37.5,34.3,37.6z"/>
		<path fill-rule="evenodd" clip-rule="evenodd" fill="#FFFFFF" d="M41.6,35.6c0.3,0.1,0.4,0.1,0.6,0.2c0.1,0,0.1,0.2,0.2,0.2
			c-0.1,0-0.2,0.1-0.2,0.1C41.8,36.2,41.6,36.1,41.6,35.6z"/>
		<path fill-rule="evenodd" clip-rule="evenodd" fill="#FFFFFF" d="M30,14.3c-0.1,0.1-0.2,0.2-0.3,0.2c-0.2-0.1-0.3-0.3-0.5-0.5
			c0,0,0.1-0.1,0.2-0.2C29.7,14,29.8,14.1,30,14.3z"/>
		<path fill-rule="evenodd" clip-rule="evenodd" fill="#FFFFFF" d="M35.3,13.2c-0.1,0.1-0.1,0.3-0.2,0.4c-0.1,0.1-0.2,0.2-0.2,0.2
			c0-0.1-0.2-0.3-0.1-0.4c0.1-0.2,0.3-0.3,0.5-0.4C35.2,13.1,35.2,13.2,35.3,13.2z"/>
		<path fill-rule="evenodd" clip-rule="evenodd" fill="#FFFFFF" d="M33.3,14.6c0.3,0,0.6,0.1,0.9,0.1c-0.4,0.3-0.6,0.3-0.9,0
			C33.3,14.7,33.3,14.6,33.3,14.6z"/>
		<path fill-rule="evenodd" clip-rule="evenodd" fill="#FFFFFF" d="M19.5,23.7c-0.3,0.1-0.4,0.2-0.5,0.1c-0.1-0.1-0.2-0.2-0.4-0.3
			c0.1-0.1,0.2-0.2,0.3-0.2C19.1,23.4,19.2,23.6,19.5,23.7z"/>
		<path fill-rule="evenodd" clip-rule="evenodd" fill="#FFFFFF" d="M38.6,27.5c0.2,0.5,0,0.6-0.3,0.6c-0.1,0-0.1-0.1-0.2-0.2
			C38.3,27.7,38.4,27.6,38.6,27.5z"/>
		<path fill-rule="evenodd" clip-rule="evenodd" fill="#FFFFFF" d="M41.3,27.3c-0.2,0.1-0.4,0.1-0.7,0.2c0-0.1-0.1-0.3,0-0.3
			c0.2-0.1,0.4-0.1,0.6-0.2C41.3,27.1,41.3,27.2,41.3,27.3z"/>
		<path fill-rule="evenodd" clip-rule="evenodd" fill="#FFFFFF" d="M40.9,18.7c-0.2,0.1-0.5,0.2-0.7,0.3c0,0-0.1-0.1-0.1-0.1
			c0.1-0.1,0.1-0.3,0.2-0.4c0.1-0.1,0.3,0,0.5-0.1C40.8,18.6,40.9,18.6,40.9,18.7z"/>
		<path fill-rule="evenodd" clip-rule="evenodd" fill="#FFFFFF" d="M47,4c-0.2-0.1-0.4-0.3-0.5-0.4c0,0,0.1-0.2,0.1-0.2
			c0.2,0.1,0.4,0.2,0.6,0.3C47.1,3.8,47,3.9,47,4z"/>
		<path fill-rule="evenodd" clip-rule="evenodd" fill="#FFFFFF" d="M19.8,20.4c-0.2,0.1-0.3,0.2-0.4,0.2c-0.1,0-0.2-0.2-0.2-0.3
			c0-0.1,0.2-0.3,0.2-0.2C19.5,20.1,19.6,20.2,19.8,20.4z"/>
		<path fill-rule="evenodd" clip-rule="evenodd" fill="#FFFFFF" d="M35.5,43.9c-0.2,0.1-0.4,0.1-0.6,0.2c0-0.1-0.1-0.2,0-0.2
			c0.2-0.1,0.4-0.1,0.6-0.2C35.5,43.7,35.5,43.8,35.5,43.9z"/>
		<path fill-rule="evenodd" clip-rule="evenodd" fill="#FFFFFF" d="M44.6,40.6c0.1-0.1,0.3-0.2,0.4-0.3c0.1,0.1,0.1,0.3,0.2,0.4
			c-0.2,0-0.3,0.1-0.5,0.1C44.7,40.8,44.6,40.7,44.6,40.6z"/>
		<path fill-rule="evenodd" clip-rule="evenodd" fill="#FFFFFF" d="M19.3,26.8c-0.1-0.1-0.2-0.3-0.2-0.3c0.1-0.1,0.2-0.2,0.3-0.3
			c0,0,0.2,0.1,0.2,0.2C19.5,26.6,19.4,26.7,19.3,26.8z"/>
		<path fill-rule="evenodd" clip-rule="evenodd" fill="#FFFFFF" d="M22.3,22c0.2-0.1,0.4-0.2,0.7-0.3C22.8,22.3,22.7,22.3,22.3,22z"
			/>
		<path fill-rule="evenodd" clip-rule="evenodd" fill="#FFFFFF" d="M26.4,11.7c-0.4,0.2-0.7,0.4-1.1,0.6c0,0,0,0,0,0
			C25.6,12.2,26,11.9,26.4,11.7C26.4,11.7,26.4,11.7,26.4,11.7z"/>
	</g>
</g>
<g id="issues">
</g>
<g id="issue">
</g>
<g id="lighter_option">
</g>
</svg>
